<svg width="675" height="900" viewBox="0 0 675 900" fill="none" xmlns="http://www.w3.org/2000/svg">
<path d="M27.4651 190.806C27.314 189.598 27.1931 189.477 25.9541 189.296C27.1629 189.144 27.2837 189.024 27.4651 187.785C27.6161 188.994 27.737 189.114 28.976 189.296C27.7672 189.447 27.6464 189.598 27.4651 190.806Z" fill="white" fill-opacity="0.1"/>
<path d="M40.7817 24.33C40.6306 23.1218 40.5098 23.0011 39.2708 22.8198C40.4795 22.6686 40.6004 22.5479 40.7817 21.3096C40.9328 22.5177 41.0537 22.6385 42.2927 22.8198C41.0839 22.9707 40.963 23.1218 40.7817 24.33Z" fill="white" fill-opacity="0.1"/>
<path d="M126.229 129.383C126.078 128.174 125.957 128.054 124.718 127.872C125.927 127.721 126.048 127.6 126.229 126.362C126.38 127.57 126.501 127.691 127.74 127.872C126.531 128.023 126.411 128.174 126.229 129.383Z" fill="white" fill-opacity="0.1"/>
<path d="M217.951 38.703C217.951 39.3201 217.45 39.8205 216.832 39.8205C216.215 39.8205 215.714 39.3201 215.714 38.703C215.714 38.0857 216.215 37.5854 216.832 37.5854C217.45 37.5854 217.951 38.0857 217.951 38.703Z" fill="white" fill-opacity="0.1"/>
<path d="M63.8953 89.2196C63.8953 89.8367 63.3946 90.3371 62.777 90.3371C62.1597 90.3371 61.6589 89.8367 61.6589 89.2196C61.6589 88.6023 62.1597 88.1021 62.777 88.1021C63.3946 88.1021 63.8953 88.6023 63.8953 89.2196Z" fill="white" fill-opacity="0.1"/>
<path d="M69.2498 192.583C69.2498 193.2 68.7493 193.7 68.1317 193.7C67.5144 193.7 67.0137 193.2 67.0137 192.583C67.0137 191.966 67.5144 191.465 68.1317 191.465C68.7493 191.465 69.2498 191.966 69.2498 192.583Z" fill="white" fill-opacity="0.1"/>
<path d="M84.7237 132.287C84.7237 132.904 84.2232 133.405 83.6056 133.405C82.988 133.405 82.4875 132.904 82.4875 132.287C82.4875 131.67 82.988 131.17 83.6056 131.17C84.2232 131.17 84.7237 131.67 84.7237 132.287Z" fill="white" fill-opacity="0.1"/>
<path d="M285.332 22.1236C284.553 22.9019 283.29 22.9019 282.511 22.1236C281.733 21.345 281.733 20.0828 282.511 19.3044C283.29 18.5258 284.553 18.5258 285.332 19.3044C286.111 20.0828 286.111 21.345 285.332 22.1236Z" fill="white" fill-opacity="0.15"/>
<path d="M166.904 89.3797C166.904 89.9968 166.403 90.4973 165.786 90.4973C165.168 90.4973 164.668 89.9968 164.668 89.3797C164.668 88.7624 165.168 88.2622 165.786 88.2622C166.403 88.2622 166.904 88.7624 166.904 89.3797Z" fill="white" fill-opacity="0.15"/>
<path d="M104.405 15.0825C104.254 13.8743 104.133 13.7535 102.894 13.5722C104.103 13.4211 104.224 13.3003 104.405 12.062C104.556 13.2702 104.677 13.391 105.916 13.5722C104.707 13.7231 104.586 13.8743 104.405 15.0825Z" fill="white" fill-opacity="0.1"/>
<path d="M133.196 93.1308C133.044 91.9226 132.924 91.8018 131.685 91.6206C132.893 91.4694 133.014 91.3487 133.196 90.1104C133.347 91.3185 133.468 91.4393 134.706 91.6206C133.498 91.7715 133.377 91.9226 133.196 93.1308Z" fill="white" fill-opacity="0.1"/>
<path d="M454.223 395.39C454.374 396.598 454.495 396.719 455.734 396.9C454.525 397.051 454.404 397.172 454.223 398.41C454.072 397.202 453.951 397.081 452.712 396.9C453.921 396.749 454.042 396.598 454.223 395.39Z" fill="white" fill-opacity="0.1"/>
<path d="M537.821 151.605C537.972 152.813 538.093 152.934 539.332 153.115C538.123 153.266 538.002 153.387 537.821 154.625C537.67 153.417 537.549 153.296 536.31 153.115C537.519 152.964 537.64 152.813 537.821 151.605Z" fill="white" fill-opacity="0.1"/>
<path d="M524.504 318.08C524.656 319.288 524.776 319.409 526.015 319.59C524.807 319.742 524.686 319.862 524.504 321.101C524.353 319.892 524.232 319.772 522.993 319.59C524.202 319.439 524.323 319.288 524.504 318.08Z" fill="white" fill-opacity="0.1"/>
<path d="M439.057 213.028C439.208 214.236 439.329 214.357 440.568 214.538C439.359 214.689 439.238 214.81 439.057 216.048C438.906 214.84 438.785 214.719 437.546 214.538C438.755 214.387 438.876 214.236 439.057 213.028Z" fill="white" fill-opacity="0.1"/>
<path d="M563.05 397.293C563.05 396.676 563.55 396.175 564.168 396.175C564.786 396.175 565.286 396.676 565.286 397.293C565.286 397.91 564.786 398.41 564.168 398.41C563.55 398.41 563.05 397.91 563.05 397.293Z" fill="white" fill-opacity="0.1"/>
<path d="M347.335 303.707C347.335 303.09 347.836 302.59 348.454 302.59C349.071 302.59 349.572 303.09 349.572 303.707C349.572 304.325 349.071 304.825 348.454 304.825C347.836 304.825 347.335 304.325 347.335 303.707Z" fill="white" fill-opacity="0.1"/>
<path d="M501.391 253.191C501.391 252.573 501.892 252.073 502.509 252.073C503.126 252.073 503.627 252.573 503.627 253.191C503.627 253.808 503.126 254.308 502.509 254.308C501.892 254.308 501.391 253.808 501.391 253.191Z" fill="white" fill-opacity="0.1"/>
<path d="M496.036 149.828C496.036 149.21 496.537 148.71 497.154 148.71C497.772 148.71 498.272 149.21 498.272 149.828C498.272 150.445 497.772 150.945 497.154 150.945C496.537 150.945 496.036 150.445 496.036 149.828Z" fill="white" fill-opacity="0.1"/>
<path d="M480.563 210.123C480.563 209.506 481.063 209.006 481.681 209.006C482.298 209.006 482.799 209.506 482.799 210.123C482.799 210.741 482.298 211.241 481.681 211.241C481.063 211.241 480.563 210.741 480.563 210.123Z" fill="white" fill-opacity="0.1"/>
<path d="M273.899 385.346C274.906 384.9 276.084 385.355 276.53 386.362C276.976 387.369 276.52 388.546 275.513 388.992C274.506 389.437 273.328 388.983 272.882 387.976C272.436 386.969 272.891 385.792 273.899 385.346Z" fill="white" fill-opacity="0.15"/>
<path d="M428.071 368.674C428.071 367.573 428.964 366.681 430.065 366.681C431.167 366.681 432.06 367.573 432.06 368.674C432.06 369.775 431.167 370.668 430.065 370.668C428.964 370.668 428.071 369.775 428.071 368.674Z" fill="white" fill-opacity="0.15"/>
<path d="M279.954 320.287C280.733 319.508 281.996 319.508 282.775 320.287C283.554 321.065 283.554 322.328 282.775 323.106C281.996 323.885 280.733 323.885 279.954 323.106C279.175 322.328 279.175 321.065 279.954 320.287Z" fill="white" fill-opacity="0.15"/>
<path d="M305.167 369.55C305.167 368.933 305.667 368.433 306.285 368.433C306.902 368.433 307.403 368.933 307.403 369.55C307.403 370.168 306.902 370.668 306.285 370.668C305.667 370.668 305.167 370.168 305.167 369.55Z" fill="white" fill-opacity="0.15"/>
<path d="M398.382 253.031C398.382 252.414 398.883 251.913 399.5 251.913C400.118 251.913 400.618 252.414 400.618 253.031C400.618 253.648 400.118 254.148 399.5 254.148C398.883 254.148 398.382 253.648 398.382 253.031Z" fill="white" fill-opacity="0.15"/>
<path d="M460.881 327.328C461.032 328.536 461.153 328.657 462.392 328.838C461.183 328.989 461.062 329.11 460.881 330.348C460.73 329.14 460.609 329.019 459.37 328.838C460.579 328.687 460.7 328.536 460.881 327.328Z" fill="white" fill-opacity="0.1"/>
<path d="M355.521 375.417C355.672 376.625 355.793 376.746 357.032 376.927C355.823 377.078 355.702 377.199 355.521 378.437C355.37 377.229 355.249 377.108 354.01 376.927C355.219 376.776 355.339 376.625 355.521 375.417Z" fill="white" fill-opacity="0.1"/>
<path d="M432.091 249.28C432.242 250.488 432.363 250.609 433.602 250.79C432.393 250.941 432.272 251.062 432.091 252.3C431.94 251.092 431.819 250.971 430.58 250.79C431.788 250.639 431.909 250.488 432.091 249.28Z" fill="white" fill-opacity="0.1"/>
<path d="M499.783 364.319C499.934 365.528 500.055 365.648 501.294 365.83C500.085 365.981 499.964 366.102 499.783 367.34C499.632 366.132 499.511 366.011 498.272 365.83C499.481 365.679 499.602 365.528 499.783 364.319Z" fill="white" fill-opacity="0.1"/>
<path d="M591.659 598.202C591.81 596.994 591.931 596.873 593.17 596.692C591.961 596.54 591.84 596.42 591.659 595.181C591.508 596.39 591.387 596.51 590.148 596.692C591.357 596.843 591.477 596.994 591.659 598.202Z" fill="white" fill-opacity="0.1"/>
<path d="M675.303 740.362C675.454 739.154 675.574 739.033 676.813 738.852C675.605 738.701 675.484 738.58 675.303 737.342C675.151 738.55 675.031 738.67 673.792 738.852C675 739.003 675.121 739.154 675.303 740.362Z" fill="white" fill-opacity="0.1"/>
<path d="M579.063 732.025C579.214 730.816 579.335 730.696 580.574 730.514C579.365 730.363 579.244 730.242 579.063 729.004C578.912 730.212 578.791 730.333 577.552 730.514C578.761 730.665 578.882 730.816 579.063 732.025Z" fill="white" fill-opacity="0.1"/>
<path d="M414.231 640.139C414.382 638.931 414.503 638.81 415.742 638.629C414.533 638.478 414.413 638.357 414.231 637.119C414.08 638.327 413.959 638.448 412.72 638.629C413.929 638.78 414.05 638.931 414.231 640.139Z" fill="white" fill-opacity="0.1"/>
<path d="M502.944 544.196C503.095 542.988 503.216 542.867 504.455 542.686C503.246 542.534 503.125 542.414 502.944 541.175C502.793 542.383 502.672 542.504 501.433 542.686C502.642 542.836 502.763 542.988 502.944 544.196Z" fill="white" fill-opacity="0.1"/>
<path d="M522.153 590.203C522.153 590.82 522.653 591.32 523.271 591.32C523.888 591.32 524.389 590.82 524.389 590.203C524.389 589.586 523.888 589.085 523.271 589.085C522.653 589.085 522.153 589.586 522.153 590.203Z" fill="white" fill-opacity="0.1"/>
<path d="M356.061 698.068C356.061 698.685 356.561 699.185 357.179 699.185C357.797 699.185 358.297 698.685 358.297 698.068C358.297 697.45 357.797 696.95 357.179 696.95C356.561 696.95 356.061 697.45 356.061 698.068Z" fill="white" fill-opacity="0.1"/>
<path d="M612.774 622.607C612.774 623.224 613.274 623.725 613.892 623.725C614.509 623.725 615.01 623.224 615.01 622.607C615.01 621.99 614.509 621.49 613.892 621.49C613.274 621.49 612.774 621.99 612.774 622.607Z" fill="white" fill-opacity="0.1"/>
<path d="M401.595 540.118C401.595 540.735 402.095 541.235 402.713 541.235C403.33 541.235 403.831 540.735 403.831 540.118C403.831 539.5 403.33 539 402.713 539C402.095 539 401.595 539.5 401.595 540.118Z" fill="white" fill-opacity="0.1"/>
<path d="M639.407 665.886C639.407 666.503 639.907 667.003 640.525 667.003C641.142 667.003 641.643 666.503 641.643 665.886C641.643 665.269 641.142 664.768 640.525 664.768C639.907 664.768 639.407 665.269 639.407 665.886Z" fill="white" fill-opacity="0.1"/>
<path d="M604.618 755.133C604.618 755.751 605.118 756.251 605.736 756.251C606.353 756.251 606.854 755.751 606.854 755.133C606.854 754.516 606.353 754.016 605.736 754.016C605.118 754.016 604.618 754.516 604.618 755.133Z" fill="white" fill-opacity="0.1"/>
<path d="M584.599 646.651C584.599 647.268 585.1 647.769 585.717 647.769C586.335 647.769 586.835 647.268 586.835 646.651C586.835 646.034 586.335 645.534 585.717 645.534C585.1 645.534 584.599 646.034 584.599 646.651Z" fill="white" fill-opacity="0.1"/>
<path d="M600.275 690.136C601.282 690.582 602.46 690.127 602.906 689.12C603.352 688.114 602.897 686.936 601.89 686.49C600.882 686.045 599.704 686.5 599.258 687.506C598.813 688.513 599.268 689.69 600.275 690.136Z" fill="white" fill-opacity="0.15"/>
<path d="M453.571 684.59C453.571 685.691 454.464 686.584 455.565 686.584C456.667 686.584 457.56 685.691 457.56 684.59C457.56 683.489 456.667 682.597 455.565 682.597C454.464 682.597 453.571 683.489 453.571 684.59Z" fill="white" fill-opacity="0.15"/>
<path d="M519.711 651.624C520.49 652.402 521.752 652.402 522.531 651.624C523.31 650.845 523.31 649.583 522.531 648.805C521.752 648.026 520.49 648.026 519.711 648.805C518.932 649.583 518.932 650.845 519.711 651.624Z" fill="white" fill-opacity="0.15"/>
<path d="M591.627 548.997C591.627 549.614 592.128 550.114 592.745 550.114C593.363 550.114 593.864 549.614 593.864 548.997C593.864 548.38 593.363 547.879 592.745 547.879C592.128 547.879 591.627 548.38 591.627 548.997Z" fill="white" fill-opacity="0.15"/>
<path d="M469.251 580.068C469.251 580.685 469.752 581.186 470.369 581.186C470.987 581.186 471.488 580.685 471.488 580.068C471.488 579.451 470.987 578.95 470.369 578.95C469.752 578.95 469.251 579.451 469.251 580.068Z" fill="white" fill-opacity="0.15"/>
<path d="M457.674 754.06C457.825 752.852 457.946 752.732 459.185 752.55C457.976 752.399 457.855 752.278 457.674 751.04C457.523 752.248 457.402 752.369 456.163 752.55C457.372 752.701 457.493 752.852 457.674 754.06Z" fill="white" fill-opacity="0.1"/>
<path d="M370.149 611.148C370.3 609.94 370.421 609.819 371.66 609.638C370.451 609.487 370.33 609.366 370.149 608.127C369.998 609.336 369.877 609.456 368.638 609.638C369.847 609.789 369.967 609.94 370.149 611.148Z" fill="white" fill-opacity="0.1"/>
<path d="M314.511 663.768C314.662 662.56 314.782 662.439 316.021 662.258C314.813 662.107 314.692 661.986 314.511 660.748C314.359 661.956 314.239 662.077 313 662.258C314.208 662.409 314.329 662.56 314.511 663.768Z" fill="white" fill-opacity="0.1"/>
<path d="M400.3 775.957C400.451 777.165 400.572 777.286 401.811 777.467C400.603 777.618 400.482 777.739 400.3 778.977C400.149 777.769 400.028 777.648 398.789 777.467C399.998 777.316 400.119 777.165 400.3 775.957Z" fill="white" fill-opacity="0.1"/>
<path d="M304.061 784.294C304.212 785.502 304.333 785.623 305.572 785.804C304.363 785.956 304.242 786.076 304.061 787.315C303.909 786.107 303.789 785.986 302.55 785.804C303.758 785.654 303.879 785.502 304.061 784.294Z" fill="white" fill-opacity="0.1"/>
<path d="M104.764 718C104.915 719.208 105.036 719.329 106.275 719.51C105.066 719.661 104.945 719.782 104.764 721.021C104.613 719.812 104.492 719.692 103.253 719.51C104.462 719.359 104.583 719.208 104.764 718Z" fill="white" fill-opacity="0.1"/>
<path d="M81.0588 818.251C81.0588 817.634 81.5593 817.134 82.1769 817.134C82.7945 817.134 83.2949 817.634 83.2949 818.251C83.2949 818.869 82.7945 819.369 82.1769 819.369C81.5593 819.369 81.0588 818.869 81.0588 818.251Z" fill="white" fill-opacity="0.1"/>
<path d="M337.771 893.712C337.771 893.094 338.272 892.594 338.89 892.594C339.507 892.594 340.008 893.094 340.008 893.712C340.008 894.329 339.507 894.829 338.89 894.829C338.272 894.829 337.771 894.329 337.771 893.712Z" fill="white" fill-opacity="0.1"/>
<path d="M364.404 850.433C364.404 849.816 364.905 849.315 365.523 849.315C366.14 849.315 366.641 849.816 366.641 850.433C366.641 851.05 366.14 851.551 365.523 851.551C364.905 851.551 364.404 851.05 364.404 850.433Z" fill="white" fill-opacity="0.1"/>
<path d="M329.616 761.185C329.616 760.568 330.116 760.068 330.734 760.068C331.351 760.068 331.852 760.568 331.852 761.185C331.852 761.803 331.351 762.303 330.734 762.303C330.116 762.303 329.616 761.803 329.616 761.185Z" fill="white" fill-opacity="0.1"/>
<path d="M309.597 869.668C309.597 869.051 310.098 868.55 310.715 868.55C311.333 868.55 311.833 869.051 311.833 869.668C311.833 870.285 311.333 870.785 310.715 870.785C310.098 870.785 309.597 870.285 309.597 869.668Z" fill="white" fill-opacity="0.1"/>
<path d="M325.273 826.183C326.28 825.737 327.458 826.192 327.904 827.199C328.35 828.205 327.895 829.383 326.887 829.828C325.88 830.274 324.702 829.819 324.256 828.812C323.81 827.806 324.266 826.628 325.273 826.183Z" fill="white" fill-opacity="0.15"/>
<path d="M178.569 831.728C178.569 830.627 179.462 829.735 180.563 829.735C181.665 829.735 182.558 830.627 182.558 831.728C182.558 832.829 181.665 833.722 180.563 833.722C179.462 833.722 178.569 832.829 178.569 831.728Z" fill="white" fill-opacity="0.15"/>
<path d="M244.708 864.695C245.487 863.917 246.75 863.917 247.529 864.695C248.308 865.474 248.308 866.736 247.529 867.514C246.75 868.293 245.487 868.293 244.708 867.514C243.929 866.736 243.929 865.474 244.708 864.695Z" fill="white" fill-opacity="0.15"/>
<path d="M182.672 762.258C182.823 763.467 182.944 763.587 184.183 763.769C182.974 763.92 182.853 764.041 182.672 765.279C182.521 764.071 182.4 763.95 181.161 763.769C182.369 763.618 182.49 763.467 182.672 762.258Z" fill="white" fill-opacity="0.1"/>
<path d="M41.5105 752.031C41.6616 753.239 41.7825 753.36 43.0215 753.541C41.8127 753.692 41.6918 753.813 41.5105 755.052C41.3594 753.843 41.2385 753.723 39.9996 753.541C41.2083 753.39 41.3292 753.239 41.5105 752.031Z" fill="white" fill-opacity="0.1"/>
</svg>
